<svg width="78" height="78" viewBox="0 0 78 78" fill="none" xmlns="http://www.w3.org/2000/svg">
<path d="M46.9887 7.85078C47.3025 13.3376 41.013 17.6505 35.984 15.3829C30.6094 13.5 29.2067 5.62445 33.6332 2.03154C37.7541 -2.02693 45.5494 0.356639 46.7384 5.98453C46.8952 6.59385 46.9797 7.22165 46.9887 7.85078Z" fill="black" fill-opacity="0.202"/>
<path d="M66.6526 22.6778C62.9433 26.733 55.4976 25.2376 53.6349 20.0514C51.2576 14.8861 55.9216 8.38346 61.5609 9.04695C67.3221 9.16615 71.0188 16.4151 67.815 21.1958C67.4875 21.7334 67.0967 22.2324 66.6526 22.6778Z" fill="black" fill-opacity="0.316"/>
<path d="M70.0785 46.9919C64.5898 47.2581 60.3316 40.9299 62.6423 35.9195C64.5718 30.5603 72.4585 29.2258 76.0126 33.6848C80.0355 37.8419 77.5845 45.6177 71.9469 46.758C71.3363 46.9094 70.7074 46.9884 70.0785 46.9917V46.9919Z" fill="black" fill-opacity="0.43"/>
<path d="M55.3104 66.6409C51.2632 62.923 52.7746 55.4804 57.9641 53.6289C63.1344 51.2622 69.6268 55.9401 68.9513 61.5782C68.8197 67.3391 61.5633 71.0205 56.7896 67.8066C56.2529 67.4779 55.7548 67.0861 55.3104 66.6412V66.6409Z" fill="black" fill-opacity="0.544"/>
<path d="M31.0076 70.0647C30.7505 64.5753 37.0865 60.3281 42.0929 62.6474C47.4494 64.5858 48.7703 72.4749 44.3049 76.0214C40.1408 80.0369 32.3689 77.5729 31.238 71.9335C31.0877 71.3225 31.0097 70.6939 31.0076 70.0647Z" fill="black" fill-opacity="0.658"/>
<path d="M11.2728 55.3998C14.9256 51.2923 22.3909 52.6848 24.3243 57.8462C26.7723 62.9799 22.1983 69.549 16.5507 68.9635C10.7889 68.9238 6.9933 61.7242 10.1308 56.898C10.4512 56.356 10.8351 55.8514 11.273 55.3998H11.2728Z" fill="black" fill-opacity="0.772"/>
<path d="M7.8992 31.0091C13.3876 30.728 17.6627 37.044 15.3657 42.0603C13.451 47.4242 5.56765 48.7803 2.00118 44.3316C-2.03282 40.1855 0.396898 32.4039 6.03153 31.2481C6.64183 31.0952 7.2701 31.0144 7.8992 31.0094V31.0091Z" fill="black" fill-opacity="0.886"/>
<path d="M22.6495 11.3203C26.7242 15.0087 25.2659 22.4618 20.0886 24.3504C14.9351 26.7534 8.4078 22.1221 9.04303 16.4796C9.13339 10.7182 16.3644 6.98546 21.1616 10.165C21.701 10.4901 22.202 10.8784 22.6496 11.3205L22.6495 11.3203Z" fill="black"/>
</svg>
