<svg width="69" height="69" viewBox="0 0 69 69" fill="none" xmlns="http://www.w3.org/2000/svg">
<path fill-rule="evenodd" clip-rule="evenodd" d="M34.5 62.1C49.6795 62.1 62.1 49.6797 62.1 34.5H69C69 53.475 53.475 69 34.5 69C15.525 69 0 53.475 0 34.5C0 15.525 15.525 0 34.5 0C39.1578 0 43.4703 0.8625 47.4375 2.5875L42.0907 7.93517C39.675 7.24533 37.0875 6.9 34.5 6.9C19.3203 6.9 6.9 19.3203 6.9 34.5C6.9 49.6797 19.3205 62.1 34.5 62.1ZM15.525 32.775L20.3547 27.9453L31.05 38.4672L60.7203 8.97033L65.55 13.8L31.05 48.3L15.525 32.775Z" fill="#10B759"/>
</svg>
